<?xml version="1.0" encoding="UTF-8" standalone="no"?>
<svg
   xmlns:dc="http://purl.org/dc/elements/1.1/"
   xmlns:cc="http://creativecommons.org/ns#"
   xmlns:rdf="http://www.w3.org/1999/02/22-rdf-syntax-ns#"
   xmlns:svg="http://www.w3.org/2000/svg"
   xmlns="http://www.w3.org/2000/svg"
   xmlns:sodipodi="http://sodipodi.sourceforge.net/DTD/sodipodi-0.dtd"
   xmlns:inkscape="http://www.inkscape.org/namespaces/inkscape"
   version="1.1"
   width="64"
   height="64"
   viewbox="0 0 64 64"
   id="svg42"
   sodipodi:docname="01n.svg"
   inkscape:version="1.0.2 (e86c8708, 2021-01-15)">
  <metadata
     id="metadata46">
    <rdf:RDF>
      <cc:Work
         rdf:about="">
        <dc:format>image/svg+xml</dc:format>
        <dc:type
           rdf:resource="http://purl.org/dc/dcmitype/StillImage" />
      </cc:Work>
    </rdf:RDF>
  </metadata>
  <sodipodi:namedview
     pagecolor="#ffffff"
     bordercolor="#666666"
     borderopacity="1"
     objecttolerance="10"
     gridtolerance="10"
     guidetolerance="10"
     inkscape:pageopacity="0"
     inkscape:pageshadow="2"
     inkscape:window-width="2560"
     inkscape:window-height="1052"
     id="namedview44"
     showgrid="false"
     inkscape:zoom="9.4841174"
     inkscape:cx="23.947676"
     inkscape:cy="30.200989"
     inkscape:window-x="0"
     inkscape:window-y="0"
     inkscape:window-maximized="1"
     inkscape:current-layer="svg42" />
  <defs
     id="defs25">
    <filter
       id="blur"
       width="200%"
       height="200%">
      <feGaussianBlur
         in="SourceAlpha"
         stdDeviation="3"
         id="feGaussianBlur10" />
      <feOffset
         dx="0"
         dy="4"
         result="offsetblur"
         id="feOffset12" />
      <feComponentTransfer
         id="feComponentTransfer16">
        <feFuncA
           type="linear"
           slope="0.05"
           id="feFuncA14" />
      </feComponentTransfer>
      <feMerge
         id="feMerge22">
        <feMergeNode
           id="feMergeNode18" />
        <feMergeNode
           in="SourceGraphic"
           id="feMergeNode20" />
      </feMerge>
    </filter>
  </defs>
  <g
     filter="url(#blur)"
     id="night"
     transform="matrix(2.4184178,0,0,2.2301596,-48.274441,-41.091159)">
    <g
       transform="translate(20,20)"
       id="g39">
      <g
         class="am-weather-moon-star-1"
         id="g29">
        <polygon
           fill="#ffa500"
           points="5.2,3.3 4,4 3.3,5.2 2.7,4 1.5,3.3 2.7,2.7 3.3,1.5 4,2.7 "
           stroke="none"
           stroke-miterlimit="10"
           id="polygon27" />
      </g>
      <g
         class="am-weather-moon-star-2"
         id="g33">
        <polygon
           fill="#ffa500"
           points="5.2,3.3 4,4 3.3,5.2 2.7,4 1.5,3.3 2.7,2.7 3.3,1.5 4,2.7 "
           stroke="none"
           stroke-miterlimit="10"
           transform="translate(20,10)"
           id="polygon31" />
      </g>
      <g
         class="am-weather-moon"
         id="g37">
        <path
           d="m 14.5,13.2 c 0,-3.7 2,-6.9 5,-8.7 -1.5,-0.9 -3.2,-1.3 -5,-1.3 -5.5,0 -10,4.5 -10,10 0,5.5 4.5,10 10,10 1.8,0 3.5,-0.5 5,-1.3 -3,-1.7 -5,-5 -5,-8.7 z"
           fill="#ffa500"
           stroke="#ffa500"
           stroke-linejoin="round"
           stroke-width="2"
           id="path35" />
      </g>
    </g>
  </g>
</svg>
