<?xml version="1.0" encoding="UTF-8" standalone="no"?>
<svg
   viewBox="0 0 48 48"
   width="144px"
   height="144px"
   version="1.1"
   id="svg39"
   sodipodi:docname="unknown.svg"
   inkscape:version="1.1 (c4e8f9e, 2021-05-24)"
   xmlns:inkscape="http://www.inkscape.org/namespaces/inkscape"
   xmlns:sodipodi="http://sodipodi.sourceforge.net/DTD/sodipodi-0.dtd"
   xmlns="http://www.w3.org/2000/svg"
   xmlns:svg="http://www.w3.org/2000/svg">
  <defs
     id="defs43" />
  <sodipodi:namedview
     id="namedview41"
     pagecolor="#ffffff"
     bordercolor="#666666"
     borderopacity="1.0"
     inkscape:pageshadow="2"
     inkscape:pageopacity="0.0"
     inkscape:pagecheckerboard="0"
     showgrid="false"
     inkscape:zoom="5.3958333"
     inkscape:cx="70.888031"
     inkscape:cy="78.671815"
     inkscape:window-width="1792"
     inkscape:window-height="1067"
     inkscape:window-x="0"
     inkscape:window-y="25"
     inkscape:window-maximized="0"
     inkscape:current-layer="svg39" />
  <path
     fill="#00549d"
     fill-rule="evenodd"
     d="M22.903,3.286c0.679-0.381,1.515-0.381,2.193,0 c3.355,1.883,13.451,7.551,16.807,9.434C42.582,13.1,43,13.804,43,14.566c0,3.766,0,15.101,0,18.867 c0,0.762-0.418,1.466-1.097,1.847c-3.355,1.883-13.451,7.551-16.807,9.434c-0.679,0.381-1.515,0.381-2.193,0 c-3.355-1.883-13.451-7.551-16.807-9.434C5.418,34.899,5,34.196,5,33.434c0-3.766,0-15.101,0-18.867 c0-0.762,0.418-1.466,1.097-1.847C9.451,10.837,19.549,5.169,22.903,3.286z"
     clip-rule="evenodd"
     id="path27"
     style="fill:#808080" />
  <path
     fill="#0086d4"
     fill-rule="evenodd"
     d="m 5.4075001,34.500337 c -0.266,-0.356 -0.304,-0.694 -0.304,-1.149 0,-3.744 0,-15.014 0,-18.759 0,-0.758 0.417,-1.458 1.094,-1.836 3.3430003,-1.872 13.4050009,-7.5069999 16.7480009,-9.3800002 0.677,-0.379 1.594,-0.371 2.271,0.008 3.343,1.8720003 13.371,7.4590002 16.714,9.3310002 0.27,0.152 0.476,0.335 0.66,0.576 z"
     clip-rule="evenodd"
     id="path29"
     style="fill:#666666" />
  <path
     fill="#0075c0"
     fill-rule="evenodd"
     d="M42.485,13.205c0.516,0.483,0.506,1.211,0.506,1.784 c0,3.795-0.032,14.589,0.009,18.384c0.004,0.396-0.127,0.813-0.323,1.127L23.593,24L42.485,13.205z"
     clip-rule="evenodd"
     id="path33"
     style="fill:#cccccc" />
  <style
     type="text/css"
     id="style471">
	.st0{fill:#374149;}
</style>
  <g
     style="opacity:1"
     id="g488"
     transform="matrix(0.06365448,0,0,0.06365448,8.4766029,8.1398119)">
    <g
       id="g477">
	<path
   class="st0"
   d="m 256.477,415.197 c -19.034,-1.817 -45.459,-0.282 -53.198,20.822 -3.696,10.088 -3.68,21.937 -3.364,32.528 0.294,9.759 0.95,20.882 6.798,29.114 0.785,1.102 1.816,1.934 2.734,2.886 0.406,0.418 0.774,0.875 1.203,1.266 1.086,0.996 2.246,1.89 3.477,2.715 0.363,0.242 0.738,0.461 1.11,0.687 14.034,8.618 35.521,7.587 50.054,4.727 23.514,-4.63 27.304,-25.25 27.304,-46.142 0,-11.537 -0.226,-25.457 -7.188,-35.251 -6.588,-9.266 -18.179,-12.329 -28.93,-13.352 z"
   style="fill:#ffffff"
   id="path473" />

	<path
   class="st0"
   d="M 374.5,63.893 C 312.917,-24.462 188.277,-5.941 136.481,28.978 c -9.29,6.258 -20.402,15.252 -22.694,27.351 -2.051,10.79 7.856,43.353 21.241,45.97 6.235,1.223 37.161,-12.724 42.9,-14.779 44.291,-15.862 103.459,-17.518 126.036,38.865 9.064,22.628 6.494,53.682 -7.013,74.65 -19.053,29.586 -66.93,30.445 -66.93,30.445 -9.286,0 -19.092,1.231 -24.808,9.412 -5.516,7.891 -5.27,18.986 -4.653,28.152 v 91.684 c 2.79,16.978 32.481,13.31 44.928,13.259 8.833,-0.039 41.982,1.066 41.982,-13.259 v -76.952 c 32.891,-3.75 72.006,-21.26 90.298,-49.35 C 409.997,184.94 401.269,102.3 374.5,63.893 Z"
   style="fill:#ffffff"
   id="path475" />

</g>
  </g>
</svg>
